<?xml version="1.0" encoding="utf-8"?>
<!-- Generator: Adobe Illustrator 24.0.1, SVG Export Plug-In . SVG Version: 6.00 Build 0)  -->
<svg version="1.1" id="Layer_1" xmlns="http://www.w3.org/2000/svg" xmlns:xlink="http://www.w3.org/1999/xlink" x="0px" y="0px"
	 viewBox="0 0 160 42" style="enable-background:new 0 0 160 42;" xml:space="preserve">
<style type="text/css">
	.st0{fill:#152223;}
</style>
<g>
	<g>
		<g>
			<path class="st0" d="M4.76,22.63c0,0,0.15-1.06-0.03-2.15c-0.18-1.08-0.27-1.01-0.27-1.13c0-0.12-0.2-0.27-0.2-0.27
				s-0.91,0.35-1.72,0.65C2.51,20.16,2.5,20.58,2.5,21c0,0.92,0.06,1.83,0.18,2.72c0.1-0.06,0.21-0.12,0.32-0.19
				C4.44,22.75,4.76,22.63,4.76,22.63z"/>
			<path class="st0" d="M34.05,23.57c-1.9,0.2-7.95,1.2-11.78,3.36c-1.87,0.99-3.16,1.23-3.16,1.23s-2.93,1.93-3.92,1.76
				c-1-0.17,0-1.06,0.53-1.36c0.53-0.3,2.33-1.2,2.33-1.2s-0.37-0.6-0.37-0.8c0-0.2-0.45-0.82-0.42-1.1c0.02-0.27,0.02-2,0.1-2.32
				c0.07-0.32,0.2-1.77,0.17-2c0,0-1.8,0.77-2.07,0.9c-0.27,0.12-1.82,0.65-2.27,0.35c-0.45-0.3,0.17-0.92,0.7-1.17
				c0.52-0.25,3.67-1.3,3.67-1.3s0.03-0.5,0.02-0.57c0,0-5.49,0.85-10.31,3.19c0,0-1,0.42-1.51,0.58c0,0-0.38,0.7-0.42,0.85
				c-0.03,0.15-0.32,0.22-0.32,0.22s-0.12-0.65-0.1-0.7c0,0-0.85,0.35-1.46,0.76c-0.19,0.13-0.4,0.25-0.61,0.35
				c1.7,9.3,9.85,16.36,19.65,16.36c10.25,0,18.7-7.73,19.84-17.67C39.61,23.16,35.62,23.4,34.05,23.57z"/>
			<path class="st0" d="M28.01,16.95c0,0-2.78-0.17-4.06-0.2c0,0,0.06,0.18,0.1,0.31c0.03,0.13,0.08,1.08,0.08,1.08
				s1.79-0.07,3.2-0.28c1.29-0.19,8.85-0.39,15.03,1.23C41.39,8.96,32.86,1.03,22.47,1.03c-10.32,0-18.81,7.82-19.86,17.86
				c2.43-0.83,6.9-2.12,12.32-2.59C23.18,15.58,28.01,16.95,28.01,16.95z"/>
			<path class="st0" d="M41.48,22.39c-0.06,0.19-0.07,0.34-0.07,0.34s0.38,0.04,0.95,0.13c0.06-0.61,0.09-1.23,0.09-1.86
				c0-0.48-0.02-0.96-0.05-1.44c-0.15,0.34-0.48,1.13-0.55,1.56C41.74,21.67,41.54,22.21,41.48,22.39z"/>
			<path class="st0" d="M41.91,19.34c-0.9-0.35-3.63-0.63-3.63-0.63s-0.33,0.35-0.47,1.19c-0.13,0.84-0.15,2.78-0.15,2.78
				c0.86,0.08,3.49,0,3.49,0s-0.12-1.35,0.05-1.99C41.37,20.08,41.91,19.34,41.91,19.34z"/>
			<path class="st0" d="M31.65,21.65c-0.07-0.62-0.13-2.66-0.02-2.74c0.12-0.08,0.27-0.37,0.27-0.37s-4.24,0.12-4.89,0.37
				c0,0-0.37-0.02-0.42,0.28c-0.05,0.3-0.23,1.3-0.22,1.45c0.02,0.15-0.28,1.83-0.27,2.15c0.02,0.32,0.07,1.35,0.07,1.35
				s1.01-0.18,1.51-0.3c0.5-0.12,3.78-0.85,4.14-0.82c0.37,0.02,0.28-0.09,0.28-0.09S31.71,22.27,31.65,21.65z"/>
			<path class="st0" d="M19.98,19.25c0.26-0.04,2.27-0.71,2.27-0.71s-1.05,0.17-1.19,0.19c-0.14,0.02-2.73,0.41-2.74,0.42
				c-0.02,0.01-0.09,0.22-0.22,0.42s-0.17,0.26-0.17,0.26s1.07-0.29,1.15-0.31C19.15,19.52,19.72,19.29,19.98,19.25z"/>
			<path class="st0" d="M25.46,23.42c-0.03-0.05-0.17-1.05-0.23-1.73c-0.07-0.68,0.1-2.5,0.1-2.5c-2.76,0.26-6.39,1.72-6.39,1.72
				s-0.17,1.51-0.25,2.28c-0.08,0.76-0.38,3.43-0.38,3.43s0.02,0.73,0.28,0.53c0.27-0.2,6.02-2.49,6.62-2.66
				c0.6-0.17,0.5-0.42,0.5-0.42S25.49,23.47,25.46,23.42z"/>
			<path class="st0" d="M37.07,19.33c0,0,0.17-0.5,0.2-0.55c0.03-0.05-2.26-0.33-4.31-0.27c0,0-0.47,1.19-0.45,1.33
				c0.02,0.14-0.12,1.83-0.12,1.99c0,0.16,0.08,1.18,0.08,1.18s2.51-0.28,4.94-0.33c0,0-0.38-1.35-0.43-1.93
				C36.93,20.19,37.07,19.33,37.07,19.33z"/>
			<path class="st0" d="M18.46,18.49c0,0,0.57,0.03,0.78,0c0.22-0.03,4.02-0.38,4.19-0.37c0,0,0.03-0.47,0-0.72
				c-0.03-0.25-0.07-0.67-0.42-0.73c-0.35-0.07-4.92,0-4.92,0s0.32,0.72,0.37,1.05S18.46,18.49,18.46,18.49z"/>
			<path class="st0" d="M11.23,17.41c0,0-3.81,0.83-5.44,1.43c0,0-0.15,0.2-0.15,0.35c0,0.15,0.23,0.13,0.27,0.22
				c0.03,0.08,0.07,0.4,0.08,0.57c0.02,0.17,0.03,1.46,0,1.68c-0.03,0.22-0.17,0.62-0.17,0.62S6.17,22,6.64,21.83
				c0.47-0.17,3.13-1.22,4.76-1.74c0,0-0.07-0.45-0.13-0.7C11.19,19.14,11.06,17.88,11.23,17.41z"/>
			<path class="st0" d="M17.06,16.78c-0.32-0.12-2.15,0.13-2.15,0.13s-2.18,0.32-2.33,0.35c-0.15,0.03-0.33,0.48-0.37,0.6
				c-0.03,0.12-0.18,0.75-0.18,0.86c0,0.12,0,0.86,0,0.98c0,0.12,0.13,0.28,0.37,0.13c0.23-0.15,1.25-0.38,1.66-0.47
				c0.42-0.08,2.2-0.5,2.28-0.5c0.08,0,1.11-0.23,1.16-0.22c0.05,0.02,0-0.35,0-0.52C17.51,17.98,17.38,16.9,17.06,16.78z"/>
		</g>
	</g>
	<g>
		<g>
			<polygon class="st0" points="54.61,23.77 50.92,14.74 48.13,14.74 53.21,27.17 53.2,27.19 53.29,27.42 55.88,27.42 61.04,14.74 
				58.32,14.74 			"/>
			<path class="st0" d="M63.68,9.77c-0.53,0-0.99,0.19-1.37,0.56c-0.38,0.37-0.57,0.82-0.57,1.34c0,0.52,0.19,0.97,0.57,1.34
				c0.38,0.37,0.83,0.56,1.37,0.56c0.53,0,0.99-0.19,1.37-0.56c0.38-0.37,0.57-0.82,0.57-1.34c0-0.52-0.19-0.97-0.57-1.34
				C64.67,9.96,64.21,9.77,63.68,9.77z"/>
			<polygon class="st0" points="61.1,17.28 62.39,17.28 62.39,27.42 64.97,27.42 64.97,14.74 62.39,14.74 			"/>
			<path class="st0" d="M76.14,15.99c-0.95-0.71-2.02-1.12-3.22-1.23c0,0-0.38-0.03-0.64-0.03c-1.78,0-3.3,0.62-4.56,1.86
				c-1.26,1.24-1.89,2.73-1.89,4.48c0,1.75,0.63,3.24,1.89,4.48c1.26,1.24,2.78,1.86,4.56,1.86c1.47,0,2.76-0.42,3.87-1.27v1.27
				h2.58V8.95h-2.58V15.99z M75.01,23.77c-0.76,0.74-1.67,1.12-2.73,1.12c-1.07,0-1.98-0.37-2.73-1.12
				c-0.76-0.74-1.13-1.64-1.13-2.69c0-1.05,0.38-1.94,1.13-2.69c0.76-0.74,1.67-1.12,2.73-1.12c0,0,0.21-0.01,0.64,0.05
				c0.79,0.12,1.49,0.47,2.09,1.07c0.76,0.74,1.13,1.64,1.13,2.69C76.14,22.13,75.77,23.02,75.01,23.77z"/>
			<path class="st0" d="M90.29,15.99c-0.95-0.71-2.02-1.12-3.22-1.23c0,0-0.41-0.03-0.68-0.03l0,0c-1.76,0.01-3.27,0.63-4.52,1.86
				c-1.26,1.24-1.89,2.73-1.89,4.48c0,1.75,0.63,3.24,1.89,4.48c1.26,1.24,2.78,1.86,4.56,1.86c1.47,0,2.76-0.42,3.87-1.27v1.27
				h2.58V14.74h-2.58V15.99z M89.15,23.77c-0.76,0.74-1.67,1.12-2.73,1.12c-1.07,0-1.98-0.37-2.73-1.12
				c-0.76-0.74-1.13-1.64-1.13-2.69c0-1.05,0.38-1.94,1.13-2.69c0.76-0.74,1.67-1.12,2.73-1.12c0.07,0,0.27,0.01,0.61,0.05
				c0.01,0,0.02-0.01,0.03-0.01v0.01c0.79,0.12,1.49,0.47,2.09,1.07c0.76,0.74,1.13,1.64,1.13,2.69
				C90.29,22.13,89.91,23.02,89.15,23.77z"/>
			<path class="st0" d="M101.09,14.77L101.09,14.77c0,0-0.42-0.03-0.68-0.03l0,0c-1.2,0-2.27,0.32-3.21,0.95v-0.95l-2.58,0v12.68
				h2.58v-6.97c0-0.88,0.31-1.63,0.94-2.24c0.63-0.62,1.38-0.92,2.28-0.93c0.02,0,0.24,0.01,0.65,0.06c0.62,0.11,1.16,0.4,1.64,0.86
				c0.63,0.62,0.94,1.37,0.94,2.24v6.97h2.58v-6.97c0-1.57-0.57-2.92-1.7-4.03C103.55,15.45,102.4,14.91,101.09,14.77z"/>
			<path class="st0" d="M113.42,27.42c1.19-0.01,2.26-0.34,3.19-1.01l0,1.01l2.57,0l0.01-12.68h-2.58v6.97
				c0,0.88-0.31,1.63-0.94,2.24c-0.62,0.61-1.38,0.92-2.27,0.92c-0.03,0-0.25-0.01-0.64-0.06c-0.01,0-0.01,0-0.02,0v0
				c-0.62-0.11-1.16-0.4-1.64-0.86c-0.63-0.62-0.94-1.36-0.94-2.24v-6.97h-2.59v6.97c0.01,1.57,0.58,2.92,1.72,4.03
				c0.98,0.96,2.13,1.51,3.46,1.65v0c0.01,0,0.39,0.03,0.64,0.03v0c0,0,0.01,0,0.01,0C113.4,27.42,113.41,27.42,113.42,27.42
				L113.42,27.42"/>
			<path class="st0" d="M127.04,14.74c-1.78,0-3.3,0.62-4.56,1.86c-1.26,1.24-1.89,2.73-1.89,4.48c0,1.75,0.63,3.24,1.89,4.48
				c1.26,1.24,2.78,1.86,4.56,1.86c1.72,0,3.01-0.21,3.87-0.63v-2.54c-1.29,0.42-2.58,0.63-3.87,0.63c-1.07,0-1.98-0.37-2.73-1.12
				c-0.43-0.42-0.74-0.9-0.93-1.42h4.31h0.35h5.45v-1.27c0-1.75-0.63-3.24-1.89-4.48C130.34,15.36,128.82,14.74,127.04,14.74z
				 M128.03,19.81h-0.35h-4.31c0.19-0.52,0.5-1,0.93-1.42c0.76-0.74,1.67-1.12,2.73-1.12c1.07,0,1.98,0.37,2.73,1.12
				c0.43,0.42,0.74,0.9,0.93,1.42H128.03z"/>
			<polygon class="st0" points="143.02,14.74 139.3,23.79 135.62,14.74 132.83,14.74 137.9,27.19 137.9,27.19 137.99,27.42 
				140.58,27.42 145.74,14.74 			"/>
			<path class="st0" d="M154.92,14.74v1.25c-0.95-0.71-2.02-1.12-3.22-1.23v0.04c0-0.02-0.01-0.04-0.01-0.04s-0.41-0.03-0.68-0.03
				c0,0,0,0,0,0c-1.76,0.01-3.27,0.63-4.52,1.86c-1.26,1.24-1.89,2.73-1.89,4.48c0,1.75,0.63,3.24,1.89,4.48
				c1.26,1.24,2.78,1.86,4.56,1.86c1.47,0,2.76-0.42,3.87-1.27v1.27h2.58V14.74H154.92z M153.79,23.77
				c-0.76,0.74-1.67,1.12-2.73,1.12s-1.98-0.37-2.73-1.12c-0.76-0.74-1.13-1.64-1.13-2.69c0-1.05,0.38-1.94,1.13-2.69
				c0.76-0.74,1.67-1.12,2.73-1.12c0.08,0,0.28,0.01,0.61,0.05c0.01,0,0.02-0.01,0.04-0.01v0.01c0.79,0.12,1.49,0.47,2.09,1.07
				c0.76,0.74,1.13,1.64,1.13,2.69C154.92,22.13,154.54,23.02,153.79,23.77z"/>
		</g>
	</g>
</g>
</svg>
